<svg width="40" height="40" viewBox="0 0 40 40" fill="none" xmlns="http://www.w3.org/2000/svg">
<path d="M7.5 9.99999C7.5 9.77898 7.5878 9.56701 7.74408 9.41073C7.90036 9.25445 8.11232 9.16666 8.33333 9.16666H31.6667C31.8877 9.16666 32.0996 9.25445 32.2559 9.41073C32.4122 9.56701 32.5 9.77898 32.5 9.99999C32.5 10.221 32.4122 10.433 32.2559 10.5892C32.0996 10.7455 31.8877 10.8333 31.6667 10.8333H8.33333C8.11232 10.8333 7.90036 10.7455 7.74408 10.5892C7.5878 10.433 7.5 10.221 7.5 9.99999ZM7.5 20C7.5 19.779 7.5878 19.567 7.74408 19.4107C7.90036 19.2545 8.11232 19.1667 8.33333 19.1667H31.6667C31.8877 19.1667 32.0996 19.2545 32.2559 19.4107C32.4122 19.567 32.5 19.779 32.5 20C32.5 20.221 32.4122 20.433 32.2559 20.5892C32.0996 20.7455 31.8877 20.8333 31.6667 20.8333H8.33333C8.11232 20.8333 7.90036 20.7455 7.74408 20.5892C7.5878 20.433 7.5 20.221 7.5 20ZM8.33333 29.1667C8.11232 29.1667 7.90036 29.2545 7.74408 29.4107C7.5878 29.567 7.5 29.779 7.5 30C7.5 30.221 7.5878 30.433 7.74408 30.5892C7.90036 30.7455 8.11232 30.8333 8.33333 30.8333H31.6667C31.8877 30.8333 32.0996 30.7455 32.2559 30.5892C32.4122 30.433 32.5 30.221 32.5 30C32.5 29.779 32.4122 29.567 32.2559 29.4107C32.0996 29.2545 31.8877 29.1667 31.6667 29.1667H8.33333Z" fill="white"/>
</svg>
